<?xml version="1.0" encoding="UTF-8" standalone="no"?>
<!--part of the matt icon theme by sixsixfive released under CC0 (https://creativecommons.org/publicdomain/zero/1.0/) on openclipart-->
<svg xmlns="http://www.w3.org/2000/svg" viewBox="0 0 128 128">
 <text x="-828.23" y="-458.93" id="0" font-size="28"><tspan x="-828.23" y="-458.93" id="5"/>
 </text>
 <text x="-828.23" y="-458.93" id="1" font-size="28"><tspan x="-828.23" y="-458.93" id="6"/>
 </text>
 <text x="1632.44" y="-609.18" id="2" font-size="28"><tspan x="1632.44" y="-609.18" id="7"/>
 </text>
 <text x="1632.44" y="-609.18" id="3" font-size="28"><tspan x="1632.44" y="-609.18" id="8"/>
 </text>
 <path d="m 65.332032,24.036018 c -0.489489,0.201812 -0.81541,0.900405 -0.776929,1.665298 l 0,10.10166 -16.095855,0.111772 C 33.214841,36.104402 18.772773,55.007218 28.92171,76.65436 l 2.331491,4.99515 9.990434,-4.662227 -2.331148,-4.995218 c -7.458114,-15.908189 3.968676,-24.930221 9.546761,-25.08737 l 0.111863,0 15.984769,0 0,11.544536 c -0.02877,0.816477 0.354163,1.534435 0.888014,1.664925 0.07431,0.01193 0.149238,0.01193 0.223545,0 0.157176,-0.02349 0.308883,-0.09987 0.443998,-0.22353 l 9.32459,-8.103528 9.435675,-8.214354 c 0.08035,-0.05884 0.155457,-0.132804 0.223526,-0.220145 0.317816,-0.407761 0.447752,-1.059578 0.331901,-1.664959 -0.07293,-0.366831 -0.230471,-0.681944 -0.443998,-0.888092 l -9.435676,-8.325883 c -0.03563,-0.04079 -0.07293,-0.07812 -0.111681,-0.111772 l -9.324645,-8.214485 c -0.208089,-0.145274 -0.441746,-0.184495 -0.665843,-0.111766 -0.0372,-0.003 -0.07448,-0.003 -0.111682,0 l -0.0016,3.76e-4 z m 31.415121,22.312596 -9.990452,4.662257 2.331166,4.995448 c 7.458115,15.90785 -3.969037,24.929928 -9.546779,25.087413 l -0.111682,0 -15.985102,0 0,-11.544578 c 0.01245,-0.449414 -0.100772,-0.886001 -0.311939,-1.20285 -0.211168,-0.316847 -0.500782,-0.484698 -0.79792,-0.462449 -0.157182,0.02349 -0.308896,0.09986 -0.444016,0.22353 l -9.324573,8.10364 -9.435668,8.214389 c -0.464681,0.340165 -0.699243,1.137587 -0.555101,1.887135 0.07294,0.366806 0.230478,0.681891 0.443998,0.888023 l 9.435668,8.325511 c 0.03563,0.04079 0.07293,0.07812 0.111682,0.111772 l 9.32459,8.214725 c 0.208095,0.14529 0.441757,0.18451 0.665861,0.11178 0.533951,-0.13051 0.916916,-0.84868 0.888015,-1.6653 l 0,-10.101558 16.096187,-0.111772 C 94.78517,91.896067 109.22722,72.993221 99.078283,51.346178 l -2.33113,-4.995184 0,-0.0024 z" id="4" fill="#616161"/>
</svg>
